<?xml version="1.0" encoding="UTF-8"?>
<svg width="253px" height="34px" viewBox="0 0 253 34" version="1.1" xmlns="http://www.w3.org/2000/svg" xmlns:xlink="http://www.w3.org/1999/xlink">
    <!-- Generator: Sketch 64 (93537) - https://sketch.com -->
    <title>worksoft-logo</title>
    <desc>Created with Sketch.</desc>
    <defs>
        <polygon id="path-1" points="0.038355612 0.0457692308 19.6092364 0.0457692308 19.6092364 33.5807103 0.038355612 33.5807103"></polygon>
        <polygon id="path-3" points="0.166431534 0.0282428571 19.7376631 0.0282428571 19.7376631 33 0.166431534 33"></polygon>
        <polygon id="path-5" points="0 0.6722 7.3389 0.6722 7.3389 8 0 8"></polygon>
    </defs>
    <g id="Symbols" stroke="none" stroke-width="1" fill="none" fill-rule="evenodd">
        <g id="NAV" transform="translate(-36.000000, -68.000000)">
            <g id="worksoft-logo" transform="translate(36.000000, 68.000000)">
                <path d="M69.5499979,19.5610301 C68.032588,22.9084785 65.5095624,25.1232902 61.8585356,25.9675731 C58.6457005,26.7109323 55.478225,25.5278336 53.8024841,22.9865037 C52.929952,21.6638926 52.5666466,20.191592 52.5670742,18.6192157 C52.5824797,15.2747356 54.1901811,12.7758107 56.8300292,10.8518972 C58.6713758,9.51020388 60.7425162,8.78465482 63.0498693,8.80585731 C66.5250203,8.83723699 69.4370266,11.0312702 70.2432309,14.2421746 C70.7088095,16.096544 70.3164054,17.871192 69.5499979,19.5610301 M74.9174182,4.89569493 C73.1004632,3.15369872 70.9903819,2.13979586 67.8233344,1.36463299 C64.7632672,0.758665955 62.3331006,1.09027283 62.3078533,1.09281713 C58.6923439,1.45834798 55.3703888,2.65459221 52.4194416,4.73582819 C45.9698077,9.28376133 42.9927573,15.4104315 44.3034811,23.2553512 C45.0086959,27.4746458 47.4534118,30.5774175 51.380876,32.440692 C54.8739997,34.0970301 58.5708142,34.3124474 62.3176955,33.6530501 C67.4206602,32.7553369 71.6134357,30.2661651 74.7693573,26.1872309 C77.1413266,23.1213515 78.5842781,19.7158083 78.9240478,15.9553354 C79.2946279,11.8551988 78.3638985,8.20031432 74.9174182,4.89569493" id="Fill-1" fill="#231F20"></path>
                <path d="M146.2013,34 C142.608876,33.9579035 139.22724,32.9033424 136.219429,30.696711 C135.946696,30.4969672 135.910131,30.2761752 136.212547,29.8994542 C137.613639,27.9290788 138.812548,26.2095643 140.183528,24.2185702 C140.26139,24.1146176 140.383131,24.0854077 140.506592,24.0931398 C140.681675,24.1034491 140.842562,24.1919377 140.967314,24.3147909 C142.314634,25.6399725 143.768208,26.5467662 145.669169,26.9256349 C147.301698,27.2512387 148.868409,27.1137807 150.271222,26.1232235 C151.053718,25.5708139 151.510998,24.7967532 151.643493,23.855595 C151.784162,22.8594536 151.258483,22.1807545 150.483301,21.6579843 C149.550243,21.027825 148.474365,20.7361562 147.413544,20.4144184 C145.91222,19.9595181 144.408315,19.5149272 143.018407,18.7610556 C141.099379,17.7206699 140.122442,16.1210017 140.063938,13.9431506 C139.890146,7.44911626 144.335614,2.09813165 150.775392,1.17372618 C154.728306,0.606282119 158.307824,1.45594476 161.794854,3.32752219 C162.076621,3.47872605 162.04952,3.92073963 161.826688,4.18405773 C160.527117,6.07496519 159.585025,7.45727783 158.310836,9.36493799 C158.118546,9.65274081 157.935289,9.94312096 157.617817,9.65961371 C156.215864,8.43237095 154.575592,7.78588851 152.708616,7.84774464 C151.402593,7.89112984 150.219601,8.32755918 149.386775,9.40359807 C148.559541,10.4727641 148.769468,11.6759517 149.887073,12.4431395 C150.777113,13.0543983 151.808682,13.3361873 152.820463,13.6562069 C154.243494,14.106382 155.679862,14.5196153 156.991907,15.2554455 C158.65928,16.1910194 159.90938,17.473675 160.343001,19.3950809 C160.657461,20.7898507 160.496574,22.1781771 160.194159,23.5566238 C159.617289,26.1820727 158.557328,28.5600972 156.51828,30.3930145 C154.605705,32.1129585 152.320164,33.1078113 149.818244,33.6357361 C148.667946,33.8788651 147.502591,33.9905498 146.2013,34" id="Fill-3" fill="#231F20"></path>
                <path d="M0.00376773695,2.47174282 L4.15340016,32.6454498 C4.18122962,32.84714 4.35777271,32.9978769 4.56649361,32.9978769 L12.3517832,32.9978769 C12.5091936,32.9978769 12.653124,32.9112563 12.7240022,32.7736823 L21.867717,15.0334347 L24.4315054,32.6501205 C24.4610742,32.8509615 24.6367477,33 24.844164,33 L32.6277143,33 C32.7877337,33 32.9334035,32.9108317 33.0029771,32.7702854 L47.9578297,2.61611056 C48.091759,2.34605797 47.8904303,2.03184583 47.5830018,2.03184583 L39.9425123,2.03184583 C39.7794491,2.03184583 39.6316051,2.12441102 39.5637708,2.26877876 L30.2500354,22.0934418 L27.4436089,2.3511533 C27.4153447,2.14988768 27.2388016,2 27.0309503,2 L21.0463133,2 C20.8871636,2 20.7419287,2.08831909 20.6719202,2.22801611 L10.7781146,21.9507725 L8.56088987,2.3626178 C8.53740877,2.15625685 8.3586915,2.00042461 8.14605708,2.00042461 L0.415991518,2.01103989 C0.16422193,2.01103989 -0.0297145744,2.22801611 0.00376773695,2.47174282" id="Fill-5" fill="#231F20"></path>
                <path d="M95.6469735,13.4871058 C94.4386788,15.8827483 91.1249826,15.9209631 89.0599444,15.9018557 L90.357646,8.16760766 C90.357646,8.16760766 93.133165,8.02536373 94.602302,8.63212961 C96.0714391,9.23889548 96.8548342,11.0914634 95.6469735,13.4871058 M104.986519,9.04569851 C104.686181,2.04007908 97.2792998,1.99549516 95.4238904,2 C95.2155637,2.00059047 95.007237,2 94.7989103,2 L83.4633351,2 C83.2593486,2 83.085743,2.14495744 83.052758,2.34155128 L78.0056102,32.5252874 C77.9639449,32.7728343 78.1596852,32.997877 78.4157534,32.997877 L85.7931218,32.997877 C85.9966743,32.997877 86.1707139,32.8539346 86.2036989,32.6573408 L88.1628377,21.0370736 L93.9013696,32.7690129 C93.9703778,32.9104076 94.1162065,33 94.2763576,33 L103.560783,33 C103.884991,33 104.084638,32.6535193 103.916675,32.3821943 L96.4603156,20.3288263 C99.6954552,19.9394601 105.311161,16.6173214 104.986519,9.04569851" id="Fill-7" fill="#231F20"></path>
                <path d="M106.0055,32.5282507 L111.008847,2.35370581 C111.042621,2.14988974 111.222317,2 111.43319,2 L118.835373,2 C119.10037,2 119.30215,2.2322654 119.260148,2.48915857 L117.229798,14.7805416 L129.180242,2.13460353 C129.261647,2.04883093 129.37596,2 129.495901,2 L138.658241,2 C138.962642,2 139.114626,2.36134891 138.898557,2.57195885 L124.454883,16.6492802 L135.111948,32.4930075 C135.254839,32.7057405 135.099824,32.98896 134.839589,32.98896 L125.005229,32.98896 C124.860173,32.98896 124.725943,32.914652 124.6506,32.7936362 L116.401464,19.5052529 L114.218697,32.6590327 C114.185788,32.8556303 114.012587,33 113.809076,33 L106.41512,33 C106.159216,33 105.964364,32.7758023 106.0055,32.5282507" id="Fill-9" fill="#231F20"></path>
                <path d="M198.005563,32.5274403 L203.012855,2.43095065 C203.054529,2.18214565 203.27192,2 203.527118,2 L220.588001,2 C220.844488,2 221.038249,2.22842507 220.993568,2.47807925 L219.923799,8.42986865 C219.888999,8.62390259 219.718008,8.76571296 219.518232,8.76571296 L210.09782,8.76571296 L209.285397,13.9371208 L217.616707,13.9371208 C217.871045,13.9371208 218.064377,14.1625738 218.023133,14.4105296 L217.010934,20.4646433 C216.978282,20.6612247 216.806432,20.805158 216.604937,20.805158 L208.17825,20.805158 L206.116904,32.6620328 C206.082964,32.8573405 205.911543,33 205.711337,33 L198.411989,33 C198.157651,33 197.964319,32.7749716 198.005563,32.5274403" id="Fill-11" fill="#231F20"></path>
                <path d="M224.713826,32.5253239 L228.850098,8.82166434 L222.420231,8.82166434 C222.162125,8.82166434 221.96493,8.59791273 222.005246,8.35080943 L222.992096,2.3430575 C223.024962,2.14562961 223.200685,2 223.40752,2 L244.580111,2 C244.840408,2 245.038041,2.22714822 244.993782,2.47594982 L243.93857,8.45355685 C243.903952,8.64886186 243.729544,8.79194401 243.524899,8.79194401 L237.126584,8.79194401 L233.062179,32.65949 C233.028875,32.8556441 232.853153,33 232.647632,33 L225.127936,33 C224.868077,33 224.670444,32.7737009 224.713826,32.5253239" id="Fill-13" fill="#231F20"></path>
                <g id="Group-17" transform="translate(163.000000, 0.000000)">
                    <mask id="mask-2" fill="white">
                        <use xlink:href="#path-1"></use>
                    </mask>
                    <g id="Clip-16"></g>
                    <path d="M11.698383,33.5536846 C6.28306383,30.3162744 3.53582979,26.4768897 3.72561702,20.7269667 C3.9613617,13.5804282 9.73455319,7.82483846 16.7145532,7.76512051 C16.7473191,7.76468462 16.7805106,7.76468462 16.8137021,7.76468462 C18.138383,7.76337692 19.2464681,6.74381282 19.3396596,5.39035128 L19.6060426,1.51696667 C19.6549787,0.806017949 19.1358298,0.195325641 18.4430638,0.126453846 C17.6664681,0.0493 16.8745532,0.0266333333 16.0707234,0.0619410256 C7.33029787,0.443351282 0.266468085,7.81481282 0.0439148936,16.7733769 C-0.150978723,24.6247615 4.79880851,31.3218897 11.6873191,33.5807103 L11.698383,33.5536846 Z" id="Fill-15" fill="#0085CA" mask="url(#mask-2)"></path>
                </g>
                <g id="Group-20" transform="translate(178.000000, 1.000000)">
                    <mask id="mask-4" fill="white">
                        <use xlink:href="#path-3"></use>
                    </mask>
                    <g id="Clip-19"></g>
                    <path d="M8.07765957,0.0552428571 C13.4925532,3.23824286 16.2397872,7.01267143 16.05,12.6659571 C15.8146809,19.6923857 10.0414894,25.3516714 3.06148936,25.4103857 C3.02829787,25.4108143 2.99553191,25.4108143 2.96234043,25.4108143 C1.63765957,25.4121 0.529148936,26.4141 0.435957447,27.7452429 L0.169574468,31.5531 C0.12106383,32.2525286 0.639787234,32.8529571 1.33297872,32.9202429 C2.10957447,32.9965286 2.90106383,33.0188143 3.70489362,32.9841 C12.4457447,32.6086714 19.5095745,25.3611 19.7321277,16.5531 C19.9265957,8.8341 14.9768085,2.24952857 8.0887234,0.0282428571 L8.07765957,0.0552428571 Z" id="Fill-18" fill="#0085CA" mask="url(#mask-4)"></path>
                </g>
                <g id="Group-6" transform="translate(245.000000, 25.000000)">
                    <g id="Group-3" transform="translate(0.000000, 0.328090)">
                        <mask id="mask-6" fill="white">
                            <use xlink:href="#path-5"></use>
                        </mask>
                        <g id="Clip-2"></g>
                        <path d="M6.8679,4.3412 C6.8679,4.7782 6.7839,5.1952 6.6169,5.5792 C6.4499,5.9642 6.2189,6.3082 5.9269,6.5992 C5.6359,6.8902 5.2929,7.1222 4.9069,7.2892 C4.5229,7.4552 4.1059,7.5392 3.6699,7.5392 C3.2319,7.5392 2.8149,7.4552 2.4309,7.2892 C2.0459,7.1222 1.7029,6.8902 1.4119,6.5992 C1.1199,6.3082 0.8889,5.9642 0.7219,5.5792 C0.5549,5.1952 0.4709,4.7782 0.4709,4.3412 C0.4709,3.9042 0.5549,3.4872 0.7219,3.0982 C0.8889,2.7082 1.1199,2.3632 1.4119,2.0722 C1.7029,1.7812 2.0459,1.5492 2.4309,1.3832 C2.8149,1.2162 3.2319,1.1322 3.6699,1.1322 C4.1059,1.1322 4.5229,1.2162 4.9069,1.3832 C5.2929,1.5492 5.6359,1.7812 5.9269,2.0722 C6.2189,2.3632 6.4499,2.7082 6.6169,3.0982 C6.7839,3.4872 6.8679,3.9042 6.8679,4.3412 M7.0549,2.9142 C6.8649,2.4732 6.5999,2.0792 6.2649,1.7442 C5.9309,1.4102 5.5379,1.1452 5.0969,0.9562 C4.6539,0.7682 4.1749,0.6722 3.6699,0.6722 C3.1709,0.6722 2.6939,0.7682 2.2529,0.9562 C1.8109,1.1452 1.4169,1.4102 1.0789,1.7442 C0.7399,2.0792 0.4719,2.4732 0.2839,2.9142 C0.0959,3.3562 -0.0001,3.8362 -0.0001,4.3412 C-0.0001,4.8392 0.0959,5.3162 0.2839,5.7582 C0.4719,6.1982 0.7399,6.5922 1.0789,6.9272 C1.4169,7.2622 1.8109,7.5272 2.2529,7.7152 C2.6939,7.9042 3.1709,8.0002 3.6699,8.0002 C4.1749,8.0002 4.6539,7.9042 5.0969,7.7152 C5.5379,7.5272 5.9309,7.2622 6.2649,6.9272 C6.5999,6.5932 6.8649,6.1992 7.0549,5.7582 C7.2429,5.3162 7.3389,4.8392 7.3389,4.3412 C7.3389,3.8362 7.2429,3.3562 7.0549,2.9142" id="Fill-1" fill="#231F20" mask="url(#mask-6)"></path>
                    </g>
                    <path d="M2.8444,3.07069 L3.8494,3.07069 C4.1294,3.07069 4.3374,3.10969 4.4674,3.18669 C4.5954,3.26169 4.6804,3.35769 4.7184,3.46969 C4.7594,3.58869 4.7804,3.71069 4.7804,3.83269 C4.7804,3.95469 4.7594,4.07669 4.7184,4.19369 C4.6804,4.30569 4.5954,4.40169 4.4674,4.47669 C4.3374,4.55369 4.1294,4.59269 3.8494,4.59269 L2.8444,4.59269 L2.8444,3.07069 Z M4.5684,4.96669 C4.6744,4.92869 4.7874,4.86669 4.9044,4.77869 C5.0214,4.69169 5.1214,4.56669 5.2034,4.40869 C5.2834,4.25169 5.3244,4.04669 5.3244,3.79969 C5.3244,3.39169 5.1944,3.07969 4.9374,2.87069 C4.6824,2.66269 4.3234,2.55769 3.8704,2.55769 L2.3104,2.55769 L2.3104,6.78069 L2.8444,6.78069 L2.8444,5.10569 L3.8354,5.10569 L4.9064,6.78069 L5.5424,6.78069 L4.3964,5.02369 C4.4424,5.00869 4.4984,4.98969 4.5684,4.96669 L4.5684,4.96669 Z" id="Fill-4" fill="#231F20"></path>
                </g>
            </g>
        </g>
    </g>
</svg>